# xmcd CD database file
#
# Track frame offsets:
#	150
#	19792
#	30843
#	40963
#	65466
#	82274
#	101465
#	123913
#	152165
#	171380
#	221994
#	240067
#	278439
#
# Disc length: 4092 seconds
#
# Revision: 0
# Processed by: cddbd v1.5.2PL0 Copyright (c) Steve Scherf et al.
# Submitted via: CDex 1.70beta2
#
DISCID=a40ffa0d
DTITLE=Livin Blues Xperience - LBX MIX
DYEAR=2007
DGENRE=Blues
TTITLE0=hoodooman
TTITLE1=god and the devil
TTITLE2=crocodile
TTITLE3=the best thing i can do
TTITLE4=don't bite the hand
TTITLE5=i just wanna make love 2u
TTITLE6=voodoo dancer
TTITLE7=red lights
TTITLE8=who are you
TTITLE9=black night
TTITLE10=wang dang doodle/lb boogie
TTITLE11=gogo train
TTITLE12=fly away/for John tagrand rip/
EXTD=YEAR: 2007
EXTT0=
EXTT1=
EXTT2=
EXTT3=
EXTT4=
EXTT5=
EXTT6=
EXTT7=
EXTT8=
EXTT9=
EXTT10=
EXTT11=
EXTT12=
PLAYORDER=
